<?xml version="1.0" encoding="utf-8"?>
<!-- Generator: Adobe Illustrator 22.1.0, SVG Export Plug-In . SVG Version: 6.00 Build 0)  -->
<svg version="1.1" id="Layer_1" xmlns="http://www.w3.org/2000/svg" xmlns:xlink="http://www.w3.org/1999/xlink" x="0px" y="0px"
	 viewBox="0 0 331.5 325.6" enable-background="new 0 0 331.5 325.6" xml:space="preserve">
<title>seed</title>
<path fill="#FFFFFF" d="M28,4.9l-0.3-0.1C28,5.5,28,6.2,28.4,6.8c0.4,0.7,0.7,1.4,1,2.1l-0.1,0l-1.1-2.2l-0.1,0l1.6,3.6l-0.1,0
	l-2.2-4.6l-0.1,0l1.5,4.2l-0.1,0L28,8.4l-0.1,0l0.5,1.8l-0.1,0l-0.2-0.3l-0.2,0.2C27,8,26.3,5.7,26,3.4l-0.1,0.4V1.3l0.1,0l-0.2,0.3
	h-0.1V0.7c-0.8,0-1.5,0.1-2.2,0.1c-1.6,0-3.2,0.1-4.7,0.1c-2.2,0-4.5-0.1-6.7-0.1c-1.5,0-2.9-0.2-4.4-0.2c-0.1,0-0.3,0.1-0.5,0.1
	c0,0-0.1,0-0.1,0C6.5,0.7,6.1,1.1,5.6,1.1c-0.2,0-0.4,0-0.7,0C4.4,1.1,3.8,1,3.3,0.9c-1-0.1-2-0.3-3.1-0.4c-0.1,0-0.3-0.2-0.3-0.3
	c0-0.1,0.1-0.4,0.2-0.5c0.3-0.2,0.7-0.3,1-0.3c1.4-0.1,2.7-0.2,4.1-0.2c0.5,0,1.1,0.1,1.5,0.1c0.1,0.1,0.1,0.3,0.2,0.3
	c1.3,0.4,2.7,0.7,4,0.7c2.9,0.1,5.8,0.2,8.8,0.2c1.5,0,3-0.1,4.5-0.2c0,0,0.1,0,0.1,0L24,0.1L24,0c0.1,0,0.2,0,0.3,0.1
	c0.3,0.1,0.6,0.2,0.9,0.2c0.1,0,0.3-0.1,0.4-0.1c0-0.1-0.1-0.3-0.2-0.4c-0.2-0.3-0.5-0.6-0.8-0.9c0,0,0-0.1-0.1-0.2l0.8,0.7l0.1-0.1
	l-0.6-1.2L25-2l0.1,0.3l0.1,0c-0.3-1.1-0.6-2.1-0.5-3.2c0,0.3,0.1,0.5,0.1,0.8c0.2,0.7,0.3,1.4,0.5,2.1c0,0.1,0.1,0.1,0.3,0.2
	l0.1,0.6l0.1,0c-0.7-3.4-0.3-6.9-0.3-10.3c0.1,0.4,0.2,0.7,0.2,1.1c0,1.8,0,3.7,0,5.5c0,0.6,0.1,1.1,0.2,1.7l0.4-7.1l0.1,0l-0.2,4.4
	l0.1,0l1.9-5.9l0,0L28-11.3l0.3-0.1l-0.8,3.3l0.1,0c0-0.2,0.1-0.3,0.1-0.4c0.1-0.2,0-0.5,0.4-0.4c0,0,0.1-0.2,0.1-0.3
	c0.2-0.9,0.4-1.7,0.6-2.6c0-0.1,0-0.2,0.1-0.3c0,1.4-0.6,2.8-0.8,4.2l2-4.2c-0.2,1.3-0.9,2.5-1.5,3.7c-0.2,0.5-0.6,1-0.6,1.6
	c0.3-0.5,0.7-1,0.6-1.6c0.3,0.1,0.3,0.2,0.2,0.4c-0.1,0.2-0.2,0.4-0.2,0.6l1.7-2.5l0.2,0.1c0,0.1-0.1,0.3-0.2,0.4
	c-0.6,1-1.3,1.9-1.9,2.9c-0.8,1.2-1.3,2.6-1.5,4c0,0.1,0,0.2,0,0.3c0.3-0.6,0.5-1.1,0.8-1.6c0.5-1,1.1-2,1.6-3
	c0.1-0.1,0.2-0.2,0.3-0.2c0.3,0.1,0.3-0.1,0.4-0.2c0.7-1.1,1.5-2.2,2.2-3.3c0.1-0.1,0.2-0.2,0.3-0.3c-0.1,0.2-0.2,0.4-0.4,0.7
	c-0.6,0.9-1.2,1.8-1.8,2.7c-0.1,0.2-0.2,0.5-0.2,0.7c-0.1,0-0.2,0-0.3,0c-0.2,0.3-0.4,0.7-0.6,1C29-5.5,28.9-5.3,28.8-5L28.9-5
	l0.3-0.7l0.9-1c0.1-0.1,0.2-0.2,0.3-0.2c0.6-0.8,1.1-1.6,1.7-2.4c0.3-0.4,0.7-0.7,1.1-1v0.3l0.4-0.1c-1.5,1.9-3.1,3.7-4.5,5.6
	l0.1,0.1c0.6-0.4,1.2-0.8,1.9-1.1l0.1,0.1c-0.5,0.4-1.1,0.8-1.6,1.3s-1.1,0.8-1.3,1.6c0.8-0.7,1.5-1.3,2.3-2l0.1,0.1
	c-0.8,0.8-1.7,1.6-2.4,2.5l0.1,0.1l2.4-1.9l0.1,0.1l-0.5,0.5l0,0.1c0.1,0,0.3-0.1,0.4-0.2c1-0.5,2-1,2.9-1.6C34-5,34.2-5.2,34.6-5
	C34.7-4.9,34.9-5,35-5.1c0.2-0.1,0.4-0.2,0.7-0.3l0.1,0.1c-0.1,0.1-0.2,0.2-0.4,0.2c-1.3,0.6-2.7,1.2-4,1.8
	c-1.3,0.6-2.6,1.4-3.6,2.5c-0.1,0.1-0.2,0.2-0.3,0.3c-0.1,0.1-0.1,0.1-0.2,0.2c2.2-0.6,4.5-0.7,6.8-0.6c-1.3,0.3-2.6,0.1-3.8,0.6
	c0.7-0.1,1.3-0.1,1.9-0.2l0,0.2c-0.1,0.1-0.2,0.1-0.3,0.1C31.2,0,30.4,0,29.6,0.1c-0.5,0-1,0.1-1.5,0.4C29,0.6,30,0.7,30.9,0.9
	l0,0.2c-0.1,0-0.3,0-0.4,0C29.6,1,28.8,0.8,28,0.7c-0.3,0-0.6-0.1-0.9-0.1l0,0.2l1.7,0.5l0,0.1c-0.3-0.1-0.7-0.2-1-0.3l0,0.1
	c0.3,0.2,0.6,0.4,1,0.5c1.1,0.5,2.1,0.9,3.2,1.4c0.1,0,0.2,0.1,0.3,0.2c0.1,0.1,0.1,0.1,0.1,0.2c-0.1,0.1-0.1,0.1-0.2,0.1
	c-0.2,0-0.4-0.1-0.5-0.2c-1.1-0.5-2.3-1-3.5-1.5c0.3,0.3,0.6,0.7,0.9,1c0.7,0.8,1.6,1.3,2.5,1.8s1.9,1,2.8,1.5
	c0.3,0.2,0.5,0.3,0.7,0.5l0,0.1c-0.2,0-0.4-0.1-0.7-0.1c-0.2-0.1-0.4-0.2-0.6-0.3s-0.4-0.1-0.6-0.2l-1.8-1.1l-0.1,0.1
	c0.2,0.2,0.3,0.4,0.5,0.6c0.2,0.2,0.5,0.4,0.7,0.6c0.1,0.1,0.1,0.3,0.2,0.5c0.1,0.1,0.1,0.2,0.2,0.4c0.5,0.4,1,0.9,1.5,1.3
	c0.1,0.1,0.3,0.3,0.3,0.4l-0.6-0.4l0,0l0.4,0.5l-0.1,0.1c-0.3-0.3-0.5-0.5-0.8-0.8c-0.2-0.2-0.4-0.5-0.8-0.5c0,0-0.1-0.1-0.1-0.1
	l-2.4-1.8l-0.1,0.1c0.1,0.1,0.2,0.2,0.3,0.3c0.3,0.3,0.7,0.5,0.9,0.9c0.2,0.3,0.6,0.6,0.9,0.8c0.3,0.3,0.7,0.5,1,0.7L33.3,9
	l-1.7-1.2l-0.1,0.1l1.5,1.7L33,9.6c-0.3-0.3-0.5-0.5-0.8-0.8c-0.2-0.1-0.3-0.4-0.6-0.2c0,0-0.2-0.1-0.3-0.2c-0.3-0.3-0.6-0.7-1-1
	c-0.1-0.1-0.3-0.2-0.4-0.3L30,7.3L30,7.4L28,4.9c0-0.1-0.1-0.3-0.1-0.4c-0.3-0.4-0.5-0.8-0.9-1.2C27.2,3.9,27.6,4.4,28,4.9z
	 M29.4,4.5l-0.7-0.9l-0.1,0.1C28.7,4.2,28.9,4.5,29.4,4.5c0,0.1,0,0.2,0,0.2C29.6,4.9,30,5,29.8,5.4c0,0,0.1,0.1,0.1,0.2
	C30.5,6,31,6.4,31.6,6.8c-0.1-0.1-0.1-0.3-0.2-0.4c-0.4-0.5-0.9-1-1.3-1.5C29.9,4.8,29.6,4.7,29.4,4.5z M27.8,9.2L27.8,9.2l-1.3-4.9
	l-0.1,0C26.6,6,27.1,7.6,27.8,9.2z M26.1-3.7l0.1,0c0.1-0.4,0.3-0.7,0.4-1.1c0.1-0.4,0.2-0.7,0.2-1.1c0.1-0.4,0.1-0.7,0.2-1.1
	l-0.1,0L26.1-3.7z M27.3,0.1C28,0,28.7,0,29.4-0.3C29-0.5,27.7-0.2,27.3,0.1L27.3,0.1z M25.6-3.5L25.6-3.5l-0.1-3h-0.1L25.6-3.5z
	 M6.3,0.3v0.1h1.3C7.2,0.4,6.8,0.1,6.3,0.3z M31.4,7.9L31.4,7.9l-0.5-0.7l-0.1,0.1L31.4,7.9z M32.4,7.4L32.4,7.4l-0.6-0.7l-0.1,0.1
	L32.4,7.4z M26.2,1.4L26.2,1.4l-0.3,1.1l0.1,0L26.2,1.4z"/>
</svg>
