<?xml version="1.0" encoding="utf-8"?>
<!-- Generator: Adobe Illustrator 22.1.0, SVG Export Plug-In . SVG Version: 6.00 Build 0)  -->
<svg version="1.1" id="Layer_1" xmlns="http://www.w3.org/2000/svg" xmlns:xlink="http://www.w3.org/1999/xlink" x="0px" y="0px"
	 viewBox="0 0 331.5 325.6" enable-background="new 0 0 331.5 325.6" xml:space="preserve">
<title>seed</title>
<path fill="#FFFFFF" d="M28,4.9c-0.7,0,1,3.3,1.3,4c-0.4-0.4-0.8-1.7-1.3-2.1c0.5,1,1.5,2.7,1.5,3.7C29,9.1,28.3,7,27.4,5.9
	c0.5,1.4,1,2.8,1.5,4.2c-0.3-0.4-0.6-1.3-0.9-1.7c0.2,0.6,0.4,1.2,0.5,1.8c-0.4-0.2-0.2,0-0.4-0.1C27,8,26.3,5.7,26,3.4
	c0,0.1-0.1,0.3-0.1,0.4c0-0.8-0.1-1.8,0.1-2.5c0,0.1-0.2,0.3-0.2,0.3c0.1-0.3,0-0.6,0-0.9C21.1,0.9,16.6,1,12,0.8
	c-1.4-0.1-3-0.4-4.4-0.2C7,0.7,6.3,1.1,5.6,1.1C4.9,1.2,0.1,0.9,0,0.4c-0.4-1.3,2.4-1,3.1-1.1c2.6-0.1,4.3,0.7,6.8,1
	c2.5,0.3,5.1,0.2,7.6,0.2c1.9,0,5,0.5,6.8-0.2C24.2,0.3,24,0.1,24,0c0.6,0.1,1,0.3,1.6,0.2c-0.2-0.6-0.8-0.9-1-1.5
	c0.3,0.3,0.8,0.5,1,0.6C25.3-1.1,25-1.6,25-2c0.2,0.2,0.1,0.2,0.3,0.2c-0.3-1.1-0.6-2.1-0.5-3.2c0.2,1.3,0.5,2.7,1.1,3.6
	c-0.7-3.4-0.3-6.9-0.3-10.3c0.5,2.7-0.1,5.5,0.4,8.2c0.1-1.9-0.3-5.6,0.5-7.1c-0.1,1.5-0.2,3-0.2,4.4c0.9-1.6,1.5-4.1,1.9-5.9
	c0,0.2-0.1,0.5-0.1,0.8c0.1,0,0.2-0.1,0.3-0.1c-0.3,1.1-0.5,2.2-0.8,3.3c0.1-0.1,0.6-0.7,0.7-0.9c0.4-0.9,0.2-2.2,0.7-3
	c0,1.4-0.6,2.8-0.8,4.2c0.7-1.4,1.3-2.8,2-4.2c-0.3,1.8-2,3.5-2.1,5.2c0.3-0.5,0.7-1,0.6-1.6c0.5,0.1,0,0.8,0,1.1
	C29-8,29.7-9.5,30.4-9.7c-0.8,2.6-3.8,4.6-3.6,7.7c0.8-1.6,1.5-3.4,2.6-4.8c0.6-0.7,2.1-3.4,3-3.9c-0.7,1.3-1.6,2.8-2.4,4
	c-0.2,0.4-1.2,0.9-1.3,1.6c1.1-1.6,2.9-3.8,4.4-5.2c0.1,0,0,0.1,0.4,0.1c-1.5,1.9-3.1,3.7-4.5,5.6c0.6-0.2,1.4-0.7,2-1.1
	c-0.6,1-2.5,1.7-2.8,3.1c0.8-0.7,1.5-1.3,2.3-2c-0.3,0.8-2,1.8-2.2,2.7c0.7-0.6,1.7-1.6,2.5-1.9c-0.2,0.2-0.3,0.3-0.5,0.5
	c1.1,0,2.5-1.3,3.6-1.8c0.5-0.2,1.4-0.1,1.9-0.3c-2.6,1.8-6.5,2.1-8.4,5.1c2.2-0.6,4.5-0.7,6.8-0.6c-1.3,0.3-2.6,0.1-3.8,0.6
	c0.7-0.1,1.5-0.2,2,0c-1.2,0.7-2.9-0.1-4.3,0.7c0.9,0.1,2.2,0.3,2.7,0.6c-1.1,0.2-2.9-0.9-3.7-0.3c0.6,0.2,1.3,0.3,1.7,0.6
	c-0.6-0.5-0.9-0.6-1.1-0.2c0.7,0.4,4.6,1.7,4.6,2.3C32,4,28.5,2.1,28.1,1.9c1,1,1.9,1.9,3.1,2.6c1.2,0.7,3.1,1.3,3.8,2.3
	c-1.3-0.2-2.6-1.4-3.7-1.5c0.8,0.9,3,2.7,3.5,3.7c-0.2-0.1-0.5-0.3-0.6-0.4c0.1,0.2,0.3,0.3,0.4,0.5c-1.3-0.6-2.9-2.5-4.3-3
	C31.4,7,32.2,8,33.4,8.9c-0.5-0.1-1.3-0.8-1.8-1c0.5,0.5,1.2,1.2,1.4,1.7c-0.7-0.7-2.2-2.2-3-2.5c0,0.2,0,0.2,0,0.3
	C28.9,6,28,4.6,27.1,3.2C27.2,3.9,27.6,4.4,28,4.9z M29.4,4.5c-0.2-0.3-0.5-0.6-0.7-0.9c0,1,2,2.6,2.9,3.2C31.3,6,30.1,5.1,29.4,4.5
	z M27.8,9.2c0-1.4-0.9-3.5-1.3-4.9C26.3,5.6,27.2,7.8,27.8,9.2z M26.1-3.7c0.5-0.6,0.9-2.5,0.7-3.2C26.6-5.8,26.4-4.7,26.1-3.7z
	 M27.3,0.1C28,0,28.8,0,29.4-0.3C28.8-0.6,27.9-0.2,27.3,0.1z M25.6-3.5c0.2-0.6,0-2.3-0.1-3C25.5-5.5,25.6-4.5,25.6-3.5z M6.3,0.3
	c0.3,0.1,0.9,0.1,1.3,0.1C7.2,0.3,6.8,0.2,6.3,0.3z M31.4,7.9c-0.2-0.2-0.3-0.6-0.6-0.6C31,7.5,31.2,7.7,31.4,7.9z M32.4,7.4
	c-0.2-0.2-0.4-0.5-0.6-0.7C31.8,6.8,32.2,7.1,32.4,7.4z M26.2,1.4c-0.1,0.3-0.3,0.8-0.2,1.1C26,2.1,26.1,1.8,26.2,1.4z"/>
</svg>
