<?xml version="1.0" encoding="utf-8"?>
<!-- Generator: Adobe Illustrator 22.1.0, SVG Export Plug-In . SVG Version: 6.00 Build 0)  -->
<svg version="1.1" id="Layer_1" xmlns="http://www.w3.org/2000/svg" xmlns:xlink="http://www.w3.org/1999/xlink" x="0px" y="0px"
	 viewBox="0 0 252.2 251.1" enable-background="new 0 0 252.2 251.1" xml:space="preserve">
<path fill="none" stroke="#FFFFFF" stroke-width="4" stroke-miterlimit="10" d="M45-125c0,0,5,8.7-17,56.7s-31,102-8,119
	s104,74,104,74s-129-20-168-65s-32-84-47-92s-31.5,22.8-31.5,22.8"/>
<path fill="none" stroke="#FFFFFF" stroke-width="4" stroke-miterlimit="10" d="M-123,40.7c0,0,14-50,26-43s4,63,22,76
	s125,49,125,49"/>
<path fill="none" stroke="#FFFFFF" stroke-width="4" stroke-miterlimit="10" d="M122,88.7c0,0-83-38-86-59s-2.7-65.9,20-83
	c36-27,5-69,5-69"/>
<rect x="-124" y="-124.7" fill="none" stroke="#FFFFFF" stroke-width="4" stroke-miterlimit="10" width="248.1" height="249.4"/>
<path fill="#FF7D2A" d="M-123,82.7"/>
<path fill="#FFFFFF" d="M-123,82.7l-1.1,42l108.1-1c0,0-67-26-79-36s-8-44-14-46S-123,82.7-123,82.7z"/>
<path fill="#FFFFFF" d="M-123.6-98c0,0,60.6-33.3,67.6,7.7s8,81,24,97c0,0-12-65,1-78s29.8-53.2,29.8-53.2l29.2,1.6
	c7.1,16.9-16.2,39.5-30,55.6c-25,29,8,122,8,122s-65-13-72-83s-56.5-20.3-56.5-20.3L-123.6-98z"/>
</svg>
